<svg xmlns="http://www.w3.org/2000/svg" version="1.0" viewBox="0 0 512 512"><path fill="#F66" d="M237.8.7c.7.3 1.6.2 1.9-.1.4-.3-.2-.6-1.3-.5-1.1 0-1.4.3-.6.6zm35 0c.7.3 1.6.2 1.9-.1.4-.3-.2-.6-1.3-.5-1.1 0-1.4.3-.6.6zM79.4 70.2l-1.9 2.3 2.3-1.9c2.1-1.8 2.7-2.6 1.9-2.6-.2 0-1.2 1-2.3 2.2zm-9 9-2.9 3.3 3.3-2.9c1.7-1.7 3.2-3.1 3.2-3.3 0-.8-.8-.1-3.6 2.9z"/><path fill="#F36" d="M240.8.7c.6.2 1.8.2 2.5 0 .6-.3.1-.5-1.3-.5-1.4 0-1.9.2-1.2.5zm28 0c.6.2 1.8.2 2.5 0 .6-.3.1-.5-1.3-.5-1.4 0-1.9.2-1.2.5zm-40 1c.7.3 1.6.2 1.9-.1.4-.3-.2-.6-1.3-.5-1.1 0-1.4.3-.6.6zm53 0c.7.3 1.6.2 1.9-.1.4-.3-.2-.6-1.3-.5-1.1 0-1.4.3-.6.6zm-193.9 61c-1.3 1.6-1.2 1.7.4.4.9-.7 1.7-1.5 1.7-1.7 0-.8-.8-.3-2.1 1.3zM422 61.4c0 .2.8 1 1.8 1.7 1.5 1.3 1.6 1.2.3-.4s-2.1-2.1-2.1-1.3zM433.5 72c1 1.1 2 2 2.3 2 .3 0-.3-.9-1.3-2s-2-2-2.3-2c-.3 0 .3.9 1.3 2zM75.4 74.2l-1.9 2.3 2.3-1.9c2.1-1.8 2.7-2.6 1.9-2.6-.2 0-1.2 1-2.3 2.2zM437 75.3c0 .2 1.5 1.6 3.3 3.3l3.2 2.9-2.9-3.3c-2.8-3-3.6-3.7-3.6-2.9zm-296.3 69.4c63.4.2 167.2.2 230.5 0 63.4-.1 11.6-.2-115.2-.2s-178.6.1-115.3.2z"/><path fill="#F03" d="M247.8.7c1.2.2 3.2.2 4.5 0 1.2-.2.2-.4-2.3-.4s-3.5.2-2.2.4zm12 0c1.2.2 3.2.2 4.5 0 1.2-.2.2-.4-2.3-.4s-3.5.2-2.2.4zm-28 1c.7.3 1.6.2 1.9-.1.4-.3-.2-.6-1.3-.5-1.1 0-1.4.3-.6.6zm47 0c.7.3 1.6.2 1.9-.1.4-.3-.2-.6-1.3-.5-1.1 0-1.4.3-.6.6zm-181.9 54c-1.3 1.6-1.2 1.7.4.4.9-.7 1.7-1.5 1.7-1.7 0-.8-.8-.3-2.1 1.3zm-14 12-2.4 2.8 2.8-2.4c2.5-2.3 3.2-3.1 2.4-3.1-.2 0-1.4 1.2-2.8 2.7zm345.1-.2c1.3 1.4 2.6 2.5 2.8 2.5.3 0-.5-1.1-1.8-2.5s-2.6-2.5-2.8-2.5c-.3 0 .5 1.1 1.8 2.5zM66.4 84.2l-2.9 3.3 3.3-2.9c3-2.8 3.7-3.6 2.9-3.6-.2 0-1.6 1.5-3.3 3.2zM442 81.3c0 .2 1.5 1.6 3.3 3.3l3.2 2.9-2.9-3.3c-2.8-3-3.6-3.7-3.6-2.9zM58.9 92.7c-1.3 1.6-1.2 1.7.4.4.9-.7 1.7-1.5 1.7-1.7 0-.8-.8-.3-2.1 1.3zm-4 5c-1.3 1.6-1.2 1.7.4.4.9-.7 1.7-1.5 1.7-1.7 0-.8-.8-.3-2.1 1.3zM455 96.4c0 .2.8 1 1.8 1.7 1.5 1.3 1.6 1.2.3-.4s-2.1-2.1-2.1-1.3z"/><path fill="red" d="M240.8 1.1c-22.1 1.2-45.8 5.8-67.3 13.2C120.1 32.6 73.4 68.8 42.4 116.1c-6.1 9.2-15.3 25.6-15.4 27.1 0 .5 103.1.8 229 .8 126 0 229-.3 229-.8-.1-1.5-9.3-17.9-15.4-27.1C436.3 65.3 384.9 27.4 327 10.7c-28-8.1-55.7-11.2-86.2-9.6z"/><path fill="#FFF" d="M21.5 153.2C13 171.8 5.4 199.4 1.8 224.5c-1.7 11.8-1.7 51.2 0 63 3.6 25.1 11.2 52.7 19.7 71.2l3.8 8.3h461.5l4.5-10.3c8.7-19.8 15.3-44.1 18.9-69.2 1.7-11.8 1.7-51.2 0-63-3.6-25.1-10.2-49.4-18.9-69.2l-4.5-10.3H25.3l-3.8 8.2zm183.6 40.4 11.7 11.7-3.9 4.9c-8.7 11-12.5 23.7-11.7 38.6 1.1 18.8 12.1 35.9 28.8 44.6 36.7 19.3 81-7 81-48.1 0-13.3-4-25-11.9-35.1l-3.9-4.9 12-11.9 11.9-11.9 3.6 4c11 12.5 18.2 27.3 21.4 44.3 1.7 9.1.6 29.8-2.1 39.2-9.5 33.3-38.2 58.8-72.1 64.1-10.2 1.6-28.5.6-37.9-2.2-30-8.6-53.5-32.2-62.2-62.4-3-10.6-3.3-35.3-.5-45.4 2.4-8.8 5.9-17.1 9.8-23.7 3.7-6.1 12.6-17.4 13.7-17.4.4 0 5.9 5.2 12.3 11.6zm55.5 30.9 3.9 12.4 13.3.3 13.3.3-9.7 7c-5.4 3.8-10.1 7.3-10.6 7.6-.6.3.8 6.2 3 13s3.8 12.6 3.6 12.8c-.1.2-5-3.1-10.8-7.4l-10.6-7.7-10.5 7.7c-5.8 4.3-10.7 7.6-10.9 7.4-.2-.2 1.4-6 3.6-12.8 2.2-6.8 3.6-12.7 3-13-.5-.3-5.2-3.8-10.6-7.6l-9.7-7 13.3-.3 13.3-.3 3.9-12.4c2.2-6.9 4.2-12.5 4.6-12.5.4 0 2.4 5.6 4.6 12.5z"/><path fill="#CC9" d="M190.9 183.7c-1.3 1.6-1.2 1.7.4.4.9-.7 1.7-1.5 1.7-1.7 0-.8-.8-.3-2.1 1.3zm9.2 58.9c0 1.1.3 1.4.6.6.3-.7.2-1.6-.1-1.9-.3-.4-.6.2-.5 1.3zm111 0c0 1.1.3 1.4.6.6.3-.7.2-1.6-.1-1.9-.3-.4-.6.2-.5 1.3zm-111 5c0 1.1.3 1.4.6.6.3-.7.2-1.6-.1-1.9-.3-.4-.6.2-.5 1.3zm111 0c0 1.1.3 1.4.6.6.3-.7.2-1.6-.1-1.9-.3-.4-.6.2-.5 1.3z"/><path fill="#9C9" d="M204 193.5c6.3 6.3 11.7 11.5 12 11.5.2 0-4.7-5.2-11-11.5S193.3 182 193 182c-.2 0 4.7 5.2 11 11.5zm103 .2-11.5 11.8 12-11.5c6.5-6.3 12.1-11.6 12.4-11.8.2-.1 0-.2-.5-.2s-6.1 5.3-12.4 11.7z"/><path fill="#693" d="M186.5 190.2c-20.5 26.2-24.7 62.4-10.7 92.2 7.7 16.2 21.7 31.2 37.4 40 3.5 1.9 10.6 5 15.8 6.8 9.3 3.2 9.8 3.3 27 3.3s17.7-.1 27-3.3c31.1-10.8 52.1-33.9 59.6-65.7 2.4-10.4 2.2-27.7-.5-39-2.7-11.4-9.3-25.1-16.6-34.3-3.1-4-5.9-7.2-6.3-7.2-.4 0-5.7 5-11.9 11.2l-11.2 11.1 3.4 4.2c10.1 12.2 14.6 31 11.4 46.7-1.9 9.4-8.2 21-15.2 28-11.2 11.2-23.5 16.3-39.7 16.3-11.5 0-17-1.4-27.4-6.9-16.7-8.7-28.6-29.1-28.6-48.9 0-12 5-26.2 12.5-35.2l3.4-4.2-11.2-11.1c-6.2-6.2-11.5-11.2-11.9-11.2-.4 0-3.2 3.2-6.3 7.2z"/><path fill="#CFC" d="M190 305.3c0 .2 1.5 1.6 3.3 3.3l3.2 2.9-2.9-3.3c-2.8-3-3.6-3.7-3.6-2.9zm128.4 2.9-2.9 3.3 3.3-2.9c3-2.8 3.7-3.6 2.9-3.6-.2 0-1.6 1.5-3.3 3.2z"/><path fill="#6C6" d="M254.3 333.7c.9.2 2.5.2 3.5 0 .9-.3.1-.5-1.8-.5-1.9 0-2.7.2-1.7.5z"/><path fill="#9C6" d="M213.9 207.7c-1.3 1.6-1.2 1.7.4.4.9-.7 1.7-1.5 1.7-1.7 0-.8-.8-.3-2.1 1.3zm82.1-1.3c0 .2.8 1 1.8 1.7 1.5 1.3 1.6 1.2.3-.4s-2.1-2.1-2.1-1.3zm-128.9 45.2c0 1.1.3 1.4.6.6.3-.7.2-1.6-.1-1.9-.3-.4-.6.2-.5 1.3zm177 0c0 1.1.3 1.4.6.6.3-.7.2-1.6-.1-1.9-.3-.4-.6.2-.5 1.3zm-93.3 49.1c.7.3 1.6.2 1.9-.1.4-.3-.2-.6-1.3-.5-1.1 0-1.4.3-.6.6zm9 0c.7.3 1.6.2 1.9-.1.4-.3-.2-.6-1.3-.5-1.1 0-1.4.3-.6.6zm-9 33c.7.3 1.6.2 1.9-.1.4-.3-.2-.6-1.3-.5-1.1 0-1.4.3-.6.6zm9 0c.7.3 1.6.2 1.9-.1.4-.3-.2-.6-1.3-.5-1.1 0-1.4.3-.6.6z"/><path fill="#FF6" d="M235.6 276.2c.3.5 1 .6 1.5.3 1.3-.9 1.1-1.2-.6-1.2-.8 0-1.2.4-.9.9z"/><path fill="#FF3" d="m251.9 225.2-3.4 11.3-13.4.3-13.4.3 8.9 6.5c4.9 3.5 9.7 7 10.7 7.7 1.6 1.1 1.5 1.9-2.2 13.4l-3.8 12.3 3.1-2.2c1.7-1.2 6.4-4.6 10.4-7.6l7.2-5.3 7.3 5.3c3.9 3 8.6 6.4 10.3 7.6l3.1 2.2-3.8-12.3c-3.7-11.5-3.8-12.3-2.2-13.4 1-.7 5.8-4.1 10.7-7.7l9-6.5-13.4-.3-13.5-.3-3.4-11.3c-2-6.1-3.8-11.2-4.1-11.2-.3 0-2.1 5.1-4.1 11.2z"/><path fill="#39C" d="M140.7 367.7c63.4.2 167.2.2 230.5 0 63.4-.1 11.6-.2-115.2-.2s-178.6.1-115.3.2zM71 433.5c1.3 1.4 2.6 2.5 2.8 2.5.3 0-.5-1.1-1.8-2.5s-2.6-2.5-2.8-2.5c-.3 0 .5 1.1 1.8 2.5zm368.4.7-1.9 2.3 2.3-1.9c2.1-1.8 2.7-2.6 1.9-2.6-.2 0-1.2 1-2.3 2.2zM76.5 439c1 1.1 2 2 2.3 2 .3 0-.3-.9-1.3-2s-2-2-2.3-2c-.3 0 .3.9 1.3 2zm356.9 1.2-1.9 2.3 2.3-1.9c2.1-1.8 2.7-2.6 1.9-2.6-.2 0-1.2 1-2.3 2.2zm-192.6 71.5c.7.3 1.6.2 1.9-.1.4-.3-.2-.6-1.3-.5-1.1 0-1.4.3-.6.6zm29 0c.7.3 1.6.2 1.9-.1.4-.3-.2-.6-1.3-.5-1.1 0-1.4.3-.6.6z"/><path fill="#06C" d="M455.9 414.7c-1.3 1.6-1.2 1.7.4.4.9-.7 1.7-1.5 1.7-1.7 0-.8-.8-.3-2.1 1.3zM59 419.4c0 .2.8 1 1.8 1.7 1.5 1.3 1.6 1.2.3-.4s-2.1-2.1-2.1-1.3zm5 5.9c0 .2 1.5 1.6 3.3 3.3l3.2 2.9-2.9-3.3c-2.8-3-3.6-3.7-3.6-2.9zm380.4 2.9-2.9 3.3 3.3-2.9c3-2.8 3.7-3.6 2.9-3.6-.2 0-1.6 1.5-3.3 3.2zM80 441.3c0 .2 1.5 1.6 3.3 3.3l3.2 2.9-2.9-3.3c-2.8-3-3.6-3.7-3.6-2.9zm347.4 3.9-2.9 3.3 3.3-2.9c3-2.8 3.7-3.6 2.9-3.6-.2 0-1.6 1.5-3.3 3.2zm-195.6 65.5c.7.3 1.6.2 1.9-.1.4-.3-.2-.6-1.3-.5-1.1 0-1.4.3-.6.6zm47 0c.7.3 1.6.2 1.9-.1.4-.3-.2-.6-1.3-.5-1.1 0-1.4.3-.6.6zm-31 1c1.2.2 3.2.2 4.5 0 1.2-.2.2-.4-2.3-.4s-3.5.2-2.2.4zm12 0c1.2.2 3.2.2 4.5 0 1.2-.2.2-.4-2.3-.4s-3.5.2-2.2.4z"/><path fill="#03C" d="M27 368.8c0 .4 2.7 5.6 5.9 11.4 40.1 72 114 121 196 129.8 13.4 1.5 40.8 1.5 54.2 0 82.1-8.8 155.9-57.7 196-129.8 3.2-5.8 5.9-11 5.9-11.4 0-.5-103-.8-229-.8-125.9 0-229 .3-229 .8z"/><path fill="#69C" d="M237.8 511.7c.7.3 1.6.2 1.9-.1.4-.3-.2-.6-1.3-.5-1.1 0-1.4.3-.6.6zm35 0c.7.3 1.6.2 1.9-.1.4-.3-.2-.6-1.3-.5-1.1 0-1.4.3-.6.6z"/><path fill="#36C" d="M243.8 511.7c.7.3 1.6.2 1.9-.1.4-.3-.2-.6-1.3-.5-1.1 0-1.4.3-.6.6zm23 0c.7.3 1.6.2 1.9-.1.4-.3-.2-.6-1.3-.5-1.1 0-1.4.3-.6.6z"/></svg>